<?xml version="1.0" encoding="UTF-8"?>
<svg id="_Слой_2" data-name="Слой 2" xmlns="http://www.w3.org/2000/svg" viewBox="0 0 98.46 12.51">
  <defs>
    <style>
      .cls-1 {
        fill: #000000;
      }
    </style>
  </defs>
    <g>
      <path class="cls-1" d="M5.88,9.37L0,6.06v-.77L5.88,2v1.94l-3.41,1.73,3.41,1.75v1.94Z"/>
      <g>
        <path class="cls-1" d="M86.79,11.99l3.92-10.52,1.38,.52-3.91,10.52-1.39-.52Z"/>
        <path class="cls-1" d="M98.46,6.05l-5.88,3.31v-1.94l3.41-1.75-3.41-1.73V2l5.88,3.29v.77Z"/>
      </g>
      <g>
        <path d="M9.19,8.4V0h1.48V8.4h-1.48Z"/>
        <path d="M12.78,8.4V3h1.38v.54c.39-.42,.91-.64,1.55-.64,1.48,0,2.22,.78,2.22,2.33v3.17h-1.38v-2.93c0-.85-.4-1.27-1.21-1.27-.44,0-.83,.17-1.18,.52v3.68h-1.38Z"/>
        <path d="M19.21,6.35V1.5h1.38v1.5h1.74v1.3h-1.74v1.97c0,.65,.22,.97,.65,.97,.27,0,.55-.1,.83-.31l.42,1.07c-.43,.35-.96,.53-1.6,.53-.59,0-1.02-.18-1.28-.55-.26-.36-.4-.91-.4-1.63Z"/>
        <path d="M27.67,6.89l.4,.97c-.53,.45-1.22,.67-2.06,.67s-1.57-.26-2.11-.78c-.53-.52-.8-1.2-.8-2.05s.26-1.48,.78-2.02,1.21-.81,2.08-.81c.71,0,1.32,.23,1.81,.7,.5,.47,.74,1.07,.74,1.81,0,.3-.03,.55-.08,.74h-3.9c.06,.4,.23,.71,.53,.93,.3,.22,.66,.33,1.09,.33,.61,0,1.12-.16,1.52-.49Zm-1.78-2.87c-.78,0-1.26,.39-1.42,1.18h2.65c0-.34-.1-.62-.32-.84-.22-.22-.53-.34-.91-.34Z"/>
        <path d="M29.62,8.4V3h1.38v.53c.3-.42,.72-.62,1.24-.62,.38,0,.66,.07,.84,.2l-.49,1.3c-.23-.14-.46-.2-.7-.2-.4,0-.7,.19-.89,.58v3.62h-1.38Z"/>
        <path d="M38.9,3l-2.33,5.42h-1.02l-2.48-5.42h1.64l1,2.32c.18,.39,.31,.8,.41,1.22,.1-.45,.24-.86,.4-1.25l.94-2.29h1.45Z"/>
        <path d="M39.7,1.06c0-.24,.08-.43,.25-.58s.37-.22,.61-.22c.21,0,.39,.07,.55,.22,.16,.15,.24,.34,.24,.58,0,.26-.08,.47-.24,.63-.16,.16-.34,.23-.55,.23-.25,0-.45-.08-.62-.23-.16-.16-.25-.37-.25-.63Zm.14,7.34V3h1.38v5.4h-1.38Z"/>
        <path d="M47.2,6.89l.4,.97c-.53,.45-1.22,.67-2.06,.67s-1.57-.26-2.11-.78c-.53-.52-.8-1.2-.8-2.05s.26-1.48,.78-2.02,1.21-.81,2.08-.81c.71,0,1.32,.23,1.81,.7,.5,.47,.74,1.07,.74,1.81,0,.3-.03,.55-.08,.74h-3.9c.06,.4,.23,.71,.53,.93,.3,.22,.66,.33,1.09,.33,.61,0,1.12-.16,1.52-.49Zm-1.78-2.87c-.78,0-1.26,.39-1.42,1.18h2.65c0-.34-.1-.62-.32-.84-.22-.22-.53-.34-.91-.34Z"/>
        <path d="M56.98,3l-1.7,5.42h-1.24l-1.15-3c-.03-.08-.07-.2-.11-.36s-.06-.25-.07-.28c-.05,.23-.11,.45-.19,.66l-1.14,2.98h-1.18l-1.75-5.42h1.48l.86,2.94c.03,.1,.08,.34,.16,.72,.1-.38,.16-.62,.2-.72l1.01-2.94h1.22l1.04,2.93c.06,.16,.12,.41,.2,.74,.03-.17,.09-.43,.17-.78l.79-2.89h1.39Z"/>
        <path d="M58.21,8.4V0h4.8V1.38h-3.32V3.76h2.96v1.38h-2.96v3.26h-1.48Z"/>
        <path d="M64.37,7.73c-.54-.53-.81-1.21-.81-2.03s.27-1.5,.81-2.03,1.25-.8,2.13-.8,1.59,.27,2.13,.8,.81,1.21,.81,2.03-.27,1.5-.81,2.03c-.54,.53-1.25,.8-2.13,.8s-1.59-.27-2.13-.8Zm.67-2.03c0,.45,.14,.82,.41,1.11,.28,.29,.63,.44,1.05,.44s.79-.14,1.06-.43c.28-.28,.41-.66,.41-1.12s-.14-.82-.42-1.1c-.28-.29-.63-.43-1.06-.43s-.76,.14-1.04,.43c-.28,.28-.42,.65-.42,1.11Z"/>
        <path d="M70.64,8.4V3h1.38v.53c.3-.42,.72-.62,1.24-.62,.38,0,.66,.07,.84,.2l-.49,1.3c-.23-.14-.46-.2-.7-.2-.4,0-.7,.19-.89,.58v3.62h-1.38Z"/>
        <path d="M78.98,6.59l.65,1.01c-.22,.3-.53,.54-.91,.7-.38,.16-.79,.24-1.24,.24-.88,0-1.59-.26-2.12-.78s-.8-1.2-.8-2.05c0-.8,.26-1.47,.79-2.02,.53-.54,1.2-.82,2-.82,.96,0,1.68,.24,2.17,.73l-.65,1.09c-.36-.35-.81-.53-1.34-.53-.4,0-.75,.14-1.05,.43-.3,.28-.45,.65-.45,1.11s.15,.84,.46,1.12c.31,.28,.67,.43,1.1,.43,.53,0,.99-.22,1.39-.66Z"/>
        <path d="M84.68,6.89l.4,.97c-.53,.45-1.22,.67-2.06,.67s-1.57-.26-2.11-.78c-.53-.52-.8-1.2-.8-2.05s.26-1.48,.78-2.02,1.21-.81,2.08-.81c.71,0,1.32,.23,1.81,.7,.5,.47,.74,1.07,.74,1.81,0,.3-.03,.55-.08,.74h-3.9c.06,.4,.23,.71,.53,.93,.3,.22,.66,.33,1.09,.33,.61,0,1.12-.16,1.52-.49Zm-1.78-2.87c-.78,0-1.26,.39-1.42,1.18h2.65c0-.34-.1-.62-.32-.84-.22-.22-.53-.34-.91-.34Z"/>
      </g>
    </g>
</svg>